<svg xmlns="http://www.w3.org/2000/svg" xmlns:xlink="http://www.w3.org/1999/xlink" viewBox="0 0 835.34 177.48"><defs><style type="text/css">.cls-1,.cls-4{fill:#549278;}.cls-1,.cls-2,.cls-3,.cls-4{fill-rule:evenodd;}.cls-2{fill:#979796;}.cls-3{fill:#c58c41;}.cls-4{stroke:#fff;stroke-miterlimit:10;stroke-width:0.05px;}.cls-5{fill:#000;}</style></defs><title>logo-horizontal-cgnRecurso 14</title><g id="Capa_2"><g id="DESIGNED_BY_FREEPIK"><polygon class="cls-1" points="67.13 48.91 67.13 0.6 0.03 80.69 67.13 158.01 67.13 110.9 61.6 108.45 56.72 105.34 52.56 101.78 49.2 97.75 46.5 93.38 44.59 88.76 43.4 84 42.94 79.17 43.27 74.35 44.33 69.59 46.17 65.1 48.81 60.94 52.23 57.1 56.39 53.8 61.33 51.02 67.13 48.91"/><polygon class="cls-2" points="68.98 159.73 86.91 105.74 83.09 104.68 79.66 103.16 76.63 101.25 73.99 98.93 71.75 96.36 70.03 93.58 68.72 90.67 67.99 87.77 67.79 84.79 68.12 81.95 69.05 79.31 70.63 76.86 72.8 74.75 75.64 73.09 79.2 71.84 83.42 71.18 99.7 71.18 99.7 50.76 69.9 50.43 64.3 51.95 59.35 54.13 55.14 56.97 51.58 60.34 48.74 64.17 46.7 68.34 45.31 72.77 44.72 77.33 44.92 82.02 45.91 86.71 47.69 91.33 50.26 95.7 53.62 99.86 57.91 103.69 62.98 107.06 68.98 109.84 68.98 159.73"/><polygon class="cls-3" points="70.96 160.06 90.53 130.79 91.39 113.94 92.38 105.28 94.23 98.27 95.55 95.56 97 93.58 98.64 92.26 100.42 91.73 102.6 91.93 104.51 92.66 106.16 93.91 107.54 95.76 108.66 98.27 109.45 101.44 110.11 109.97 123.76 91.73 123.76 73.23 84.93 73.23 80.52 73.76 76.96 74.81 74.19 76.4 72.14 78.38 70.76 80.63 70.03 83.21 69.9 85.92 70.36 88.76 71.35 91.53 72.74 94.24 74.65 96.82 76.96 99.07 79.59 101.05 82.56 102.64 85.79 103.69 89.22 104.22 70.96 160.06"/><polygon class="cls-4" points="832.16 175.04 832.16 172.79 0.03 172.79 0.03 177.45 832.16 177.45 832.16 175.04"/><path class="cls-5" d="M183.9,141.39V157c-3.16.83-6,1.47-8.51,1.9a44.3,44.3,0,0,1-7.48.65q-10.24,0-16.71-4.64Q144,149.78,144,140.28q0-10.12,7.18-15.9,6.7-5.37,17.55-5.37a33.07,33.07,0,0,1,7.54.82,28,28,0,0,1,6.89,2.63,19.12,19.12,0,0,0-1.68,5.73h-.84a13.69,13.69,0,0,0-5.12-4.28,15,15,0,0,0-6.67-1.5,13.23,13.23,0,0,0-11.2,5.43q-3.71,5-3.71,12.61,0,7.35,3.77,11.54t10.6,4.19a14.15,14.15,0,0,0,3.68-.4,13,13,0,0,0,2.9-1.18V141.39c.68,0,1.56.05,2.64.14s1.69.14,1.85.14c.68,0,1.24,0,1.68,0C182.8,141.46,183.74,141.39,183.9,141.39Z"/><path class="cls-5" d="M192.76,120h22.81c-.08.41-.15.85-.21,1.3a8.86,8.86,0,0,0-.09,1.13,8.67,8.67,0,0,0,.12,1.19c.08.53.14.95.18,1.25-2-.26-4.14-.46-6.32-.59s-4.68-.2-7.51-.2v12.18H208q2.34,0,3.63-.09c.85,0,2.1-.19,3.74-.42-.08.42-.15.85-.21,1.3a9,9,0,0,0-.09,1.14,8.56,8.56,0,0,0,.12,1.18c.08.54.14.95.18,1.25-1-.11-2.15-.22-3.56-.34s-2.69-.17-3.81-.17h-6.22v14.4c2.83,0,5.34-.07,7.51-.2s4.28-.33,6.32-.6c-.08.42-.15.85-.21,1.3a9.13,9.13,0,0,0-.09,1.14,8.82,8.82,0,0,0,.12,1.19c.08.53.14.94.18,1.24H192.76Z"/><path class="cls-5" d="M223.05,158.78V120H229q3.95,4.08,8.56,8.72,2.58,2.55,8.77,8.9t8.54,8.89V120l2.39.17,2.4-.17V158.9l-5.09-.06q-5.1-5.33-10.12-10.71-5.27-5.55-10.06-10.31l-6.53-6.46V158.9l-2.39-.29Z"/><path class="cls-5" d="M269.28,120h22.81c-.08.41-.15.85-.21,1.3a8.86,8.86,0,0,0-.09,1.13,8.67,8.67,0,0,0,.12,1.19c.08.53.14.95.18,1.25-2-.26-4.14-.46-6.32-.59s-4.68-.2-7.51-.2v12.18h6.22q2.34,0,3.63-.09c.85,0,2.1-.19,3.74-.42-.08.42-.15.85-.21,1.3a9,9,0,0,0-.09,1.14,8.56,8.56,0,0,0,.12,1.18c.08.54.14.95.18,1.25-1-.11-2.15-.22-3.56-.34s-2.69-.17-3.81-.17h-6.22v14.4c2.83,0,5.34-.07,7.51-.2s4.28-.33,6.32-.6c-.08.42-.15.85-.21,1.3a9.13,9.13,0,0,0-.09,1.14,8.82,8.82,0,0,0,.12,1.19c.08.53.14.94.18,1.24H269.28Z"/><path class="cls-5" d="M299,158.9V120h12.76c2.75,0,4.77,0,6,.14a9.78,9.78,0,0,1,3.66,1q5.2,2.61,5.21,8.1a9.35,9.35,0,0,1-2.52,6.69,12.31,12.31,0,0,1-6.83,3.51q2.34,3.85,6.53,10c1.88,2.72,3.23,4.71,4.07,5.95l2.34,3.52c-.76,0-1.79-.05-3.09-.14s-2.08-.15-2.36-.15c-.76,0-1.79,0-3.08.15s-2.07.14-2.31.14L312.33,147l-3.9-6.29H308V158.9c-.67,0-1.23,0-1.67-.06-1.72-.15-2.66-.23-2.82-.23-.68,0-1.55,0-2.63.15S299.19,158.9,299,158.9Zm9-35.76v15.13a5.54,5.54,0,0,0,.78.06h.78q7.85,0,7.84-8.13a14.84,14.84,0,0,0-.29-2.82,4.67,4.67,0,0,0-2.76-3.62,12.86,12.86,0,0,0-4.61-.62Z"/><path class="cls-5" d="M355.73,147.05h-14c-1.28,3.44-2.2,6-2.78,7.58s-1.05,3.05-1.41,4.27l-2.81-.29-2.88.29L349,119.52l2.27.17,2.28-.17,16.7,39.38c-.72,0-1.69-.05-2.93-.14s-2-.15-2.22-.15c-.71,0-1.69,0-2.93.15s-2,.14-2.22.14q-1.31-4-2-6.07C357.19,150.64,356.45,148.72,355.73,147.05Zm-12.32-3.45h10.95L349,130.39Z"/><path class="cls-5" d="M384.83,120v34.51c2.56,0,4.74-.06,6.56-.18s4.2-.32,7.15-.62c-.08.42-.15.85-.21,1.3a9.13,9.13,0,0,0-.09,1.14,8.82,8.82,0,0,0,.12,1.19c.08.53.14.94.18,1.24H375.85V120c.68,0,1.56,0,2.63.14s1.7.14,1.86.14q1,0,1.68-.06C383.73,120.1,384.67,120,384.83,120Z"/><path class="cls-5" d="M422.73,120h20.48q9,0,13.83,5.61,4.24,4.92,4.25,12.58,0,9.41-6.29,15-6,5.39-15.5,5.38H422.73Zm9,3.28v32h5.09q6.82,0,10.36-3.57,4.18-4.24,4.19-13.6,0-7.71-3.71-11.39-3.48-3.45-10.06-3.46Z"/><path class="cls-5" d="M468.89,120h22.82c-.08.41-.15.85-.21,1.3a8.86,8.86,0,0,0-.09,1.13,8.67,8.67,0,0,0,.12,1.19c.08.53.14.95.18,1.25-2-.26-4.14-.46-6.32-.59s-4.68-.2-7.51-.2v12.18h6.22q2.34,0,3.63-.09c.85,0,2.1-.19,3.74-.42-.08.42-.15.85-.21,1.3a9,9,0,0,0-.09,1.14,8.56,8.56,0,0,0,.12,1.18c.08.54.14.95.18,1.25-1-.11-2.15-.22-3.56-.34s-2.69-.17-3.81-.17h-6.22v14.4q4.25,0,7.51-.2c2.18-.14,4.28-.33,6.32-.6-.08.42-.15.85-.21,1.3a9.13,9.13,0,0,0-.09,1.14,8.82,8.82,0,0,0,.12,1.19c.08.53.14.94.18,1.24H468.89Z"/><path class="cls-5" d="M524.58,120v34.51c2.55,0,4.74-.06,6.55-.18s4.2-.32,7.16-.62c-.08.42-.15.85-.21,1.3a9.13,9.13,0,0,0-.09,1.14,8.82,8.82,0,0,0,.12,1.19c.08.53.14.94.18,1.24H515.6V120c.68,0,1.55,0,2.63.14s1.7.14,1.86.14c.68,0,1.23,0,1.67-.06C523.48,120.1,524.42,120,524.58,120Z"/><path class="cls-5" d="M565.35,147.05h-14c-1.27,3.44-2.2,6-2.78,7.58s-1,3.05-1.41,4.27l-2.81-.29-2.88.29,17.13-39.38,2.27.17,2.28-.17,16.7,39.38c-.72,0-1.69-.05-2.93-.14s-2-.15-2.22-.15c-.72,0-1.69,0-2.93.15s-2,.14-2.22.14q-1.3-4-2-6.07C566.81,150.64,566.07,148.72,565.35,147.05ZM553,143.6h11l-5.33-13.21Z"/><path class="cls-5" d="M600.14,158.78V120h5.93q3.95,4.08,8.56,8.72,2.58,2.55,8.77,8.9t8.53,8.89V120l2.4.17,2.39-.17V158.9l-5.09-.06q-5.08-5.33-10.11-10.71-5.28-5.55-10.06-10.31l-6.53-6.46V158.9l-2.39-.29Z"/><path class="cls-5" d="M666.3,147.05H652.35c-1.28,3.44-2.21,6-2.78,7.58s-1.05,3.05-1.41,4.27l-2.82-.29-2.87.29,17.13-39.38,2.27.17,2.28-.17,16.7,39.38c-.72,0-1.7-.05-2.93-.14s-2-.15-2.22-.15c-.72,0-1.7,0-2.93.15s-2,.14-2.22.14c-.88-2.69-1.55-4.71-2-6.07C667.76,150.64,667,148.72,666.3,147.05ZM654,143.6h10.94l-5.33-13.21Z"/><path class="cls-5" d="M718.09,152l.78.34-1.32,4.84a23.38,23.38,0,0,1-5.63,1.83,33,33,0,0,1-6.22.59q-9.83,0-16.05-5.15a17.17,17.17,0,0,1-6.47-13.92q0-10.57,7-16.3Q696.6,119,707,119a29,29,0,0,1,6.38.71,24.12,24.12,0,0,1,5.84,2.06c-.2.76-.43,1.67-.69,2.75s-.49,2.11-.69,3.09H717a12.54,12.54,0,0,0-4.37-3.77,11.65,11.65,0,0,0-5.57-1.44A12.2,12.2,0,0,0,696.36,128a20.41,20.41,0,0,0-3.24,11.77q0,7.47,3.72,12t10.53,4.5a15.36,15.36,0,0,0,5.72-1.15A16.08,16.08,0,0,0,718.09,152Z"/><path class="cls-5" d="M727,158.9V120c.68,0,1.56,0,2.64.14s1.69.14,1.85.14q1,0,1.68-.06c1.72-.15,2.65-.22,2.81-.22V158.9c-.68,0-1.23,0-1.67-.06-1.72-.15-2.66-.23-2.82-.23-.68,0-1.55,0-2.63.15S727.17,158.9,727,158.9Z"/><path class="cls-5" d="M789.34,139.15a18.71,18.71,0,0,1-6.28,14.37q-6.6,6.06-17.31,6.06-10.12,0-16.13-5.32t-6-14.88A18.71,18.71,0,0,1,749.76,125q6.48-5.94,17.43-5.94,11.61,0,17.48,6.79A19.78,19.78,0,0,1,789.34,139.15Zm-22.51-16.74q-6.41,0-9.76,4.52-3.54,4.75-3.53,14.09a17.65,17.65,0,0,0,2.87,10.35,11.06,11.06,0,0,0,9.64,4.81,11.43,11.43,0,0,0,10.12-5.49q3.23-5,3.23-12.61a18.66,18.66,0,0,0-2.87-10.58A11,11,0,0,0,766.83,122.41Z"/><path class="cls-5" d="M796.41,158.78V120h5.92q4,4.08,8.57,8.72,2.57,2.55,8.77,8.9t8.53,8.89V120l2.39.17L833,120V158.9l-5.09-.06q-5.08-5.33-10.12-10.71-5.26-5.55-10.06-10.31l-6.52-6.46V158.9l-2.4-.29Z"/><path class="cls-5" d="M205,78.51l1.36.58-2.3,8.28a40.46,40.46,0,0,1-9.8,3.14,58.22,58.22,0,0,1-10.84,1q-17.1,0-27.94-8.82-11.26-9.12-11.26-23.86,0-18.14,12.19-27.93Q167.57,22,185.71,22a52,52,0,0,1,11.1,1.22A42.35,42.35,0,0,1,207,26.75q-.53,2-1.2,4.71t-1.2,5.29h-1.46a21.93,21.93,0,0,0-7.61-6.45,20.54,20.54,0,0,0-9.69-2.48q-12.1,0-18.67,9.5-5.62,8.15-5.63,20.16,0,12.81,6.47,20.51t18.35,7.7a27.34,27.34,0,0,0,9.95-2A28.36,28.36,0,0,0,205,78.51Z"/><path class="cls-5" d="M294.35,56.51a31.86,31.86,0,0,1-11,24.64q-11.47,10.36-30.13,10.37-17.62,0-28.1-9.11T214.69,56.9q0-15,10.74-24.72Q236.7,22,255.77,22,276,22,286.22,33.63,294.35,42.95,294.35,56.51Zm-39.2-28.69q-11.16,0-17,7.75Q232,43.72,232,59.71q0,10.66,5,17.74,5.84,8.25,16.78,8.24a20,20,0,0,0,17.62-9.4q5.64-8.54,5.63-21.62,0-10.76-5-18.13Q266.1,27.83,255.15,27.82Z"/><path class="cls-5" d="M306.65,90.16V23.74H317q6.88,7,14.91,15,4.49,4.36,15.28,15.24T362,69.19V23.74l4.17.29,4.17-.29V90.36l-8.86-.1q-8.87-9.14-17.62-18.35-9.18-9.52-17.51-17.68L315,43.16v47.2l-4.17-.49Z"/><path class="cls-5" d="M416.12,30.64V90.36c-1.18,0-2.15,0-2.92-.1-3-.26-4.62-.39-4.9-.39q-1.77,0-4.59.24c-1.87.16-2.95.25-3.23.25V30.64c-3.68,0-6.9.11-9.64.34s-6,.56-9.75,1c.14-.91.26-1.7.37-2.38a12.55,12.55,0,0,0,.15-1.8,11.89,11.89,0,0,0-.21-2.38c-.14-.68-.24-1.24-.31-1.7h53.69c-.14.91-.26,1.7-.36,2.38a12.34,12.34,0,0,0-.16,1.7,12.54,12.54,0,0,0,.21,2.48c.14.68.24,1.24.31,1.7-5.07-.59-8.13-.91-9.17-1Q420.92,30.65,416.12,30.64Z"/><path class="cls-5" d="M479.82,70.06H455.53q-3.33,8.82-4.84,13c-1,2.78-1.83,5.21-2.45,7.31l-4.91-.49-5,.49,29.82-67.49,4,.29,4-.29,29.09,67.49c-1.25,0-3-.09-5.11-.25s-3.44-.24-3.86-.24c-1.25,0-2.95.08-5.11.24s-3.44.25-3.85.25q-2.3-6.9-3.55-10.4Q481.7,74.33,479.82,70.06Zm-21.45-5.92h19.06L468.15,41.5Z"/><path class="cls-5" d="M515.37,23.74H551q15.65,0,24.09,9.62,7.39,8.45,7.4,21.55,0,16.13-10.95,25.73-10.43,9.24-27,9.23h-29.2ZM531,29.37V84.24h8.87q11.88,0,18-6.12,7.3-7.29,7.3-23.31,0-13.2-6.46-19.51-6-5.92-17.52-5.93Z"/><path class="cls-5" d="M596.91,63.3V23.74c1.18,0,2.71.08,4.58.24s3,.25,3.23.25c1.19,0,2.16,0,2.92-.1,3-.26,4.63-.39,4.9-.39v31.9q0,3.69.06,7.27a38.79,38.79,0,0,0,.78,7.22,29.47,29.47,0,0,0,1.72,5.92,14.19,14.19,0,0,0,3.7,4.7,17.48,17.48,0,0,0,11.89,4.17q7.39,0,11.57-2.62t7-9.11a23.67,23.67,0,0,0,1.57-8q.32-5.14.31-12.12V23.74l4.17.29,4.17-.29V58.26q0,10.67-1.46,15.61a21.73,21.73,0,0,1-9.59,12.51,26.92,26.92,0,0,1-9.07,3.93,45.85,45.85,0,0,1-10.64,1.21q-10.85,0-18.34-3.39-9.08-4.17-11.79-12.9a34.39,34.39,0,0,1-1.25-5.77A46.51,46.51,0,0,1,596.91,63.3Z"/><path class="cls-5" d="M676.56,90.36V23.74h22.21q7.18,0,10.53.24a17.68,17.68,0,0,1,6.36,1.7q9.06,4.47,9.07,13.89A15.88,15.88,0,0,1,720.35,51a21.68,21.68,0,0,1-11.89,6q4.06,6.6,11.37,17.09,4.89,7,7.09,10.19l4.06,6c-1.32,0-3.11-.09-5.37-.25s-3.63-.24-4.12-.24q-2,0-5.37.24c-2.25.16-3.59.25-4,.25L699.7,70l-6.77-10.78h-.73V90.36c-1.18,0-2.16,0-2.92-.1-3-.26-4.62-.39-4.9-.39q-1.77,0-4.59.24C677.92,90.27,676.84,90.36,676.56,90.36ZM692.2,29.08V55a11.17,11.17,0,0,0,1.35.1h1.36q13.65,0,13.66-13.94a24.39,24.39,0,0,0-.52-4.83,8,8,0,0,0-4.8-6.19,22.58,22.58,0,0,0-8-1.07Z"/><path class="cls-5" d="M741.93,90.36V23.74q1.77,0,4.59.24c1.87.17,3,.25,3.23.25,1.18,0,2.15,0,2.92-.1,3-.26,4.62-.39,4.9-.39V90.36c-1.18,0-2.16,0-2.92-.1-3-.26-4.62-.39-4.9-.39q-1.77,0-4.59.24C743.29,90.27,742.21,90.36,741.93,90.36Z"/><path class="cls-5" d="M810,70.06H785.72q-3.35,8.82-4.85,13c-1,2.78-1.83,5.21-2.45,7.31l-4.9-.49-5,.49,29.82-67.49,4,.29,4-.29,29.08,67.49c-1.25,0-3-.09-5.1-.25s-3.44-.24-3.86-.24c-1.25,0-3,.08-5.11.24s-3.44.25-3.86.25q-2.29-6.9-3.54-10.4Q811.89,74.33,810,70.06Zm-21.46-5.92h19.06L798.33,41.5Z"/><path class="cls-5" d="M739.61,18.32a1.73,1.73,0,0,0,2,2.16l18-12.18s2.61-1.39.92-6.79c0,0-5.54-3.4-8,0L740.23,17.4"/><path class="cls-5" d="M761.68,116a1.23,1.23,0,0,0,1.41,1.53l12.7-8.6s1.84-1,.65-4.78c0,0-3.91-2.4-5.64,0l-8.68,11.2"/></g></g></svg>