<?xml version="1.0" encoding="UTF-8" standalone="no"?>
<svg
   xmlns:dc="http://purl.org/dc/elements/1.1/"
   xmlns:cc="http://creativecommons.org/ns#"
   xmlns:rdf="http://www.w3.org/1999/02/22-rdf-syntax-ns#"
   xmlns:svg="http://www.w3.org/2000/svg"
   xmlns="http://www.w3.org/2000/svg"
   xmlns:xlink="http://www.w3.org/1999/xlink"
   xmlns:sodipodi="http://sodipodi.sourceforge.net/DTD/sodipodi-0.dtd"
   xmlns:inkscape="http://www.inkscape.org/namespaces/inkscape"
   viewBox="0 0 1856.28 458.79999"
   version="1.1"
   id="svg145"
   sodipodi:docname="lobo-bdme1.svg"
   inkscape:export-filename="C:\Users\cestrada.CGN-LOC\Documents\Repositorio Nuevo\BDME\war\img\lobo-bdme1.png"
   inkscape:export-xdpi="96"
   inkscape:export-ydpi="96"
   width="1856.28"
   height="458.79999"
   inkscape:version="0.92.2 (5c3e80d, 2017-08-06)">
  <metadata
     id="metadata149">
    <rdf:RDF>
      <cc:Work
         rdf:about="">
        <dc:format>image/svg+xml</dc:format>
        <dc:type
           rdf:resource="http://purl.org/dc/dcmitype/StillImage" />
        <dc:title>logo bdme Mesa de trabajo 9</dc:title>
      </cc:Work>
    </rdf:RDF>
  </metadata>
  <sodipodi:namedview
     pagecolor="#ffffff"
     bordercolor="#666666"
     borderopacity="1"
     objecttolerance="10"
     gridtolerance="10"
     guidetolerance="10"
     inkscape:pageopacity="0"
     inkscape:pageshadow="2"
     inkscape:window-width="1920"
     inkscape:window-height="1028"
     id="namedview147"
     showgrid="false"
     inkscape:zoom="0.18177083"
     inkscape:cx="960"
     inkscape:cy="540"
     inkscape:window-x="-8"
     inkscape:window-y="-8"
     inkscape:window-maximized="1"
     inkscape:current-layer="svg145" />
  <defs
     id="defs38">
    <style
       id="style2">.cls-1{opacity:0.99;}.cls-2{fill:#6d2470;}.cls-3{fill:url(#Degradado_sin_nombre_5);}.cls-4{fill:url(#Degradado_sin_nombre_5-2);}.cls-5{fill:#8c2b86;}.cls-6{fill:url(#Degradado_sin_nombre_5-3);}.cls-7{fill:url(#Degradado_sin_nombre_5-4);}.cls-8{fill:url(#Degradado_sin_nombre_5-5);}.cls-9{fill:url(#Degradado_sin_nombre_4);}.cls-10{fill:url(#Degradado_sin_nombre_3);}.cls-11{fill:url(#Degradado_sin_nombre_2);}.cls-12{fill:url(#Degradado_sin_nombre_2-2);}.cls-13{fill:url(#Degradado_sin_nombre_5-6);}</style>
    <linearGradient
       id="Degradado_sin_nombre_5"
       x1="490.76001"
       y1="532.39001"
       x2="584.29999"
       y2="532.39001"
       gradientUnits="userSpaceOnUse">
      <stop
         offset="0"
         stop-color="#8c2b86"
         id="stop4" />
      <stop
         offset="0.52"
         stop-color="#5c1e57"
         id="stop6" />
      <stop
         offset="1"
         stop-color="#8c2b86"
         id="stop8" />
    </linearGradient>
    <linearGradient
       id="Degradado_sin_nombre_5-2"
       x1="603.32001"
       y1="532.39001"
       x2="693.09003"
       y2="532.39001"
       xlink:href="#Degradado_sin_nombre_5" />
    <linearGradient
       id="Degradado_sin_nombre_5-3"
       x1="490.76001"
       y1="528.58002"
       x2="584.29999"
       y2="528.58002"
       xlink:href="#Degradado_sin_nombre_5" />
    <linearGradient
       id="Degradado_sin_nombre_5-4"
       x1="603.32001"
       y1="528.58002"
       x2="693.09003"
       y2="528.58002"
       xlink:href="#Degradado_sin_nombre_5" />
    <linearGradient
       id="Degradado_sin_nombre_5-5"
       x1="46.169998"
       y1="588.06"
       x2="300.26999"
       y2="588.06"
       xlink:href="#Degradado_sin_nombre_5" />
    <linearGradient
       id="Degradado_sin_nombre_4"
       x1="729.82001"
       y1="557.34998"
       x2="759.90997"
       y2="557.34998"
       gradientUnits="userSpaceOnUse">
      <stop
         offset="0"
         stop-color="#298f7b"
         id="stop15" />
      <stop
         offset="0.49"
         stop-color="#267e7c"
         id="stop17" />
      <stop
         offset="1"
         stop-color="#298f7b"
         id="stop19" />
    </linearGradient>
    <linearGradient
       id="Degradado_sin_nombre_3"
       x1="740.87"
       y1="495.19"
       x2="762.33002"
       y2="495.19"
       gradientUnits="userSpaceOnUse">
      <stop
         offset="0"
         stop-color="#d28c3e"
         id="stop22" />
      <stop
         offset="0.49"
         stop-color="#b9783c"
         id="stop24" />
      <stop
         offset="1"
         stop-color="#d28c3e"
         id="stop26" />
    </linearGradient>
    <linearGradient
       id="Degradado_sin_nombre_2"
       x1="837.15997"
       y1="425.91"
       x2="693.90997"
       y2="663.78003"
       gradientUnits="userSpaceOnUse">
      <stop
         offset="0"
         stop-color="#616160"
         id="stop29" />
      <stop
         offset="0.71"
         stop-color="#949392"
         id="stop31" />
      <stop
         offset="1"
         stop-color="#949392"
         id="stop33" />
    </linearGradient>
    <linearGradient
       id="Degradado_sin_nombre_2-2"
       x1="768.23999"
       y1="467.63"
       x2="778.04999"
       y2="467.63"
       xlink:href="#Degradado_sin_nombre_2" />
    <linearGradient
       id="Degradado_sin_nombre_5-6"
       x1="481.39999"
       y1="662"
       x2="1902"
       y2="662"
       xlink:href="#Degradado_sin_nombre_5" />
    <linearGradient
       inkscape:collect="always"
       xlink:href="#Degradado_sin_nombre_5"
       id="linearGradient956"
       gradientUnits="userSpaceOnUse"
       x1="490.76001"
       y1="532.39001"
       x2="584.29999"
       y2="532.39001" />
    <linearGradient
       inkscape:collect="always"
       xlink:href="#Degradado_sin_nombre_2"
       id="linearGradient958"
       gradientUnits="userSpaceOnUse"
       x1="837.15997"
       y1="425.91"
       x2="693.90997"
       y2="663.78003" />
  </defs>
  <title
     id="title40">logo bdme Mesa de trabajo 9</title>
  <g
     id="Capa_8"
     data-name="Capa 8"
     transform="translate(-45.71997,-288.20001)">
    <g
       class="cls-1"
       id="g66"
       style="opacity:0.98999999">
      <path
         class="cls-2"
         d="m 212.46,546.84 h -19.21 v 19 h 19.21 c 7.61,0 11.22,-2.66 11.22,-9.32 0,-6.44 -3.61,-9.68 -11.22,-9.68 z"
         id="path42"
         inkscape:connector-curvature="0"
         style="fill:#6d2470" />
      <path
         class="cls-2"
         d="m 333.43,502 h -10.08 v 60.11 h 10.08 c 18.64,0 31,-10.46 31,-30 0,-19.54 -12.36,-30.11 -31,-30.11 z"
         id="path44"
         inkscape:connector-curvature="0"
         style="fill:#6d2470" />
      <path
         class="cls-2"
         d="m 220.83,508.23 c 0,-6.66 -3.62,-9.7 -11.22,-9.7 h -16.36 v 19 h 16.36 c 7.6,0.02 11.22,-2.83 11.22,-9.3 z"
         id="path46"
         inkscape:connector-curvature="0"
         style="fill:#6d2470" />
      <path
         class="cls-3"
         d="m 503.85,545.89 -0.52,-1.4 a 228.2,228.2 0 0 1 -12.57,55.23 h 30.77 l 20.74,-67.14 v 67.14 h 42 V 465.06 h -51.51 z"
         id="path48"
         inkscape:connector-curvature="0"
         style="fill:url(#linearGradient956)" />
      <polygon
         class="cls-4"
         points="645.54,566.05 645.54,547.03 687.39,547.03 687.39,515.27 645.54,515.27 645.54,498.72 693.09,498.72 693.09,465.06 603.32,465.06 603.32,599.72 693.09,599.72 693.09,566.05 "
         id="polygon50"
         style="fill:url(#Degradado_sin_nombre_5-2)" />
      <path
         class="cls-5"
         d="m 212.46,543 h -19.21 v 19 h 19.21 c 7.61,0 11.22,-2.66 11.22,-9.32 0,-6.41 -3.61,-9.68 -11.22,-9.68 z"
         id="path52"
         inkscape:connector-curvature="0"
         style="fill:#8c2b86" />
      <path
         class="cls-5"
         d="m 333.43,498.15 h -10.08 v 60.1 h 10.08 c 18.64,0 31,-10.46 31,-30 0,-19.54 -12.36,-30.1 -31,-30.1 z"
         id="path54"
         inkscape:connector-curvature="0"
         style="fill:#8c2b86" />
      <path
         class="cls-5"
         d="m 464.66,528.77 v 67.14 H 422.44 V 461.25 h 51.73 l 29.16,79.44 q 1.14,-11.4 1.15,-23.1 C 504.48,390.9 401.79,288.2 275.1,288.2 148.41,288.2 45.72,390.9 45.72,517.59 45.72,644.28 148.42,747 275.1,747 374.28,747 458.75,684.06 490.76,595.94 H 485.4 Z M 221.59,595.91 H 151 V 461.25 h 68.67 c 26.82,0 44.12,11.6 44.12,35 0,16.17 -9.32,27.2 -22.63,30.62 16.55,4 25.68,17.12 25.68,32.14 0.02,23.59 -15.96,36.9 -45.25,36.9 z m 115.64,0 H 281.12 V 461.25 h 56.11 c 43,0 70,28.15 70,67 -0.01,38.37 -27.01,67.66 -70,67.66 z"
         id="path56"
         inkscape:connector-curvature="0"
         style="fill:#8c2b86" />
      <path
         class="cls-5"
         d="m 220.83,504.43 c 0,-6.66 -3.62,-9.7 -11.22,-9.7 h -16.36 v 19 h 16.36 c 7.6,0.02 11.22,-2.84 11.22,-9.3 z"
         id="path58"
         inkscape:connector-curvature="0"
         style="fill:#8c2b86" />
      <path
         class="cls-6"
         d="m 503.85,542.09 -0.52,-1.4 a 228.12,228.12 0 0 1 -12.57,55.22 h 30.77 l 20.74,-67.14 v 67.14 h 42 V 461.25 h -51.51 z"
         id="path60"
         inkscape:connector-curvature="0"
         style="fill:url(#Degradado_sin_nombre_5-3)" />
      <polygon
         class="cls-7"
         points="645.54,562.25 645.54,543.23 687.39,543.23 687.39,511.46 645.54,511.46 645.54,494.92 693.09,494.92 693.09,461.25 603.32,461.25 603.32,595.91 693.09,595.91 693.09,562.25 "
         id="polygon62"
         style="fill:url(#Degradado_sin_nombre_5-4)" />
      <path
         class="cls-8"
         d="m 300.27,745.3 c -0.22,-59.39 -15.15,-115 -41,-162.78 -7.49,8.49 -20.06,13.05 -37.18,13.05 H 151.47 V 466.2 A 283.28,283.28 0 0 0 63.56,429.5 228.67,228.67 0 0 0 46.17,517.24 c 0,126.69 102.7,229.38 229.38,229.38 a 232,232 0 0 0 24.72,-1.32 z"
         id="path64"
         inkscape:connector-curvature="0"
         style="fill:url(#Degradado_sin_nombre_5-5)" />
    </g>
    <path
       class="cls-9"
       d="m 757.19,542.3 h -24.66 a 2.72,2.72 0 0 0 -2.71,2.73 v 24.65 a 2.71,2.71 0 0 0 2.71,2.72 h 24.66 a 2.72,2.72 0 0 0 2.72,-2.72 V 545 a 2.73,2.73 0 0 0 -2.72,-2.7 z"
       id="path68"
       inkscape:connector-curvature="0"
       style="fill:url(#Degradado_sin_nombre_4)" />
    <path
       class="cls-10"
       d="m 743.06,484.46 h 17.09 a 2.18,2.18 0 0 1 2.18,2.18 v 17.09 a 2.19,2.19 0 0 1 -2.19,2.19 h -17.09 a 2.18,2.18 0 0 1 -2.18,-2.18 v -17.1 a 2.19,2.19 0 0 1 2.19,-2.18 z"
       id="path70"
       inkscape:connector-curvature="0"
       style="fill:url(#Degradado_sin_nombre_3)" />
    <path
       class="cls-11"
       d="M 785.67,515.45 H 771.6 a 0.6,0.6 0 0 0 -0.6,0.6 v 14.08 a 0.6,0.6 0 0 0 0.6,0.6 h 14.07 a 0.6,0.6 0 0 0 0.6,-0.6 v -14.08 a 0.6,0.6 0 0 0 -0.6,-0.6 z"
       id="path72"
       inkscape:connector-curvature="0"
       style="fill:url(#linearGradient958)" />
    <rect
       class="cls-12"
       x="768.23999"
       y="462.73999"
       width="9.8000002"
       height="9.8000002"
       id="rect74"
       style="fill:url(#Degradado_sin_nombre_2-2)" />
    <path
       d="m 840,459 a 37.18,37.18 0 0 1 9.67,1.09 18.42,18.42 0 0 1 6.59,3.09 11.91,11.91 0 0 1 3.77,4.88 16.47,16.47 0 0 1 1.22,6.49 12.93,12.93 0 0 1 -0.64,4 11.76,11.76 0 0 1 -2,3.65 14.71,14.71 0 0 1 -3.34,3.05 19.2,19.2 0 0 1 -4.75,2.25 Q 863,490.21 863,500.85 a 16.47,16.47 0 0 1 -1.41,6.9 15.16,15.16 0 0 1 -4.09,5.4 19.3,19.3 0 0 1 -6.61,3.54 29.33,29.33 0 0 1 -9,1.27 H 820.35 V 459 Z m -10,7.48 v 18.42 h 9.58 c 4.08,0 7.15,-0.79 9.16,-2.36 a 8.19,8.19 0 0 0 3,-6.84 c 0,-3.24 -1,-5.6 -2.85,-7 -1.85,-1.4 -4.89,-2.2 -8.89,-2.2 z m 11.87,43.88 a 17,17 0 0 0 5.46,-0.75 10,10 0 0 0 3.64,-2.06 7.94,7.94 0 0 0 2.05,-3.09 11.71,11.71 0 0 0 0.63,-3.84 8.17,8.17 0 0 0 -2.84,-6.57 c -1.9,-1.59 -4.9,-2.39 -9,-2.39 h -11.88 v 18.7 z"
       id="path76"
       inkscape:connector-curvature="0" />
    <path
       d="m 937.36,488.49 a 33.24,33.24 0 0 1 -2.13,12.07 27.52,27.52 0 0 1 -6,9.51 27.18,27.18 0 0 1 -9.28,6.25 33.15,33.15 0 0 1 -24.06,0 27.17,27.17 0 0 1 -15.33,-15.76 35.26,35.26 0 0 1 0,-24.14 27.22,27.22 0 0 1 15.33,-15.81 33.29,33.29 0 0 1 24.06,0 27.23,27.23 0 0 1 9.28,6.27 27.74,27.74 0 0 1 6,9.54 33.24,33.24 0 0 1 2.13,12.07 z m -9.78,0 a 28.25,28.25 0 0 0 -1.37,-9.13 19.21,19.21 0 0 0 -3.93,-6.87 16.93,16.93 0 0 0 -6.2,-4.34 22.69,22.69 0 0 0 -16.33,0 17.09,17.09 0 0 0 -6.22,4.34 19.45,19.45 0 0 0 -4,6.87 31,31 0 0 0 0,18.29 19.54,19.54 0 0 0 4,6.87 17.34,17.34 0 0 0 6.22,4.29 23,23 0 0 0 16.33,0 17.17,17.17 0 0 0 6.2,-4.29 19.29,19.29 0 0 0 3.93,-6.87 28.31,28.31 0 0 0 1.37,-9.16 z"
       id="path78"
       inkscape:connector-curvature="0" />
    <path
       d="m 990.07,509.93 v 8 H 956 V 459 h 9.57 v 50.91 z"
       id="path80"
       inkscape:connector-curvature="0" />
    <path
       d="m 1043.28,510.22 v 7.74 H 1006.5 V 459 h 36.74 v 7.73 h -27.13 v 17.77 h 21.69 v 7.5 h -21.69 v 18.21 z"
       id="path82"
       inkscape:connector-curvature="0" />
    <path
       d="M 1102.39,467 H 1084 v 51 h -9.54 v -51 h -18.42 v -8 h 46.34 z"
       id="path84"
       inkscape:connector-curvature="0" />
    <path
       d="m 1140.13,442 -13.32,11.71 a 3.26,3.26 0 0 1 -1.38,0.81 6.35,6.35 0 0 1 -1.64,0.17 h -6.35 l 9,-11.17 a 3.57,3.57 0 0 1 0.74,-0.82 3.4,3.4 0 0 1 0.81,-0.46 3.86,3.86 0 0 1 1,-0.19 c 0.36,0 0.8,-0.05 1.29,-0.05 z m -11.75,76 h -9.62 v -59 h 9.62 z"
       id="path86"
       inkscape:connector-curvature="0" />
    <path
       d="m 1199.33,459 v 59 h -4.87 a 4.13,4.13 0 0 1 -1.87,-0.39 4.36,4.36 0 0 1 -1.48,-1.29 l -32.37,-41.58 c 0.08,0.79 0.14,1.58 0.18,2.35 0.04,0.77 0.06,1.49 0.06,2.15 V 518 h -8.42 v -59 h 5 a 7.51,7.51 0 0 1 1,0.07 2.49,2.49 0 0 1 0.79,0.22 2.29,2.29 0 0 1 0.7,0.49 8.92,8.92 0 0 1 0.7,0.81 l 32.41,41.63 c -0.08,-0.84 -0.14,-1.68 -0.18,-2.49 -0.04,-0.81 -0.06,-1.59 -0.06,-2.3 V 459 Z"
       id="path88"
       inkscape:connector-curvature="0" />
    <path
       d="m 1301.87,488.49 a 32.64,32.64 0 0 1 -2.12,12 26.39,26.39 0 0 1 -15.29,15.35 32.36,32.36 0 0 1 -12.06,2.16 h -22.26 v -59 h 22.26 a 32.36,32.36 0 0 1 12.06,2.15 26.39,26.39 0 0 1 15.29,15.35 32.68,32.68 0 0 1 2.12,11.99 z m -9.79,0 a 28.25,28.25 0 0 0 -1.37,-9.13 18.8,18.8 0 0 0 -3.93,-6.83 17,17 0 0 0 -6.19,-4.28 21.31,21.31 0 0 0 -8.19,-1.5 h -12.64 v 43.47 h 12.64 a 21.69,21.69 0 0 0 8.19,-1.48 16.82,16.82 0 0 0 6.19,-4.26 19.1,19.1 0 0 0 3.93,-6.84 28.2,28.2 0 0 0 1.37,-9.15 z"
       id="path90"
       inkscape:connector-curvature="0" />
    <path
       d="m 1357.37,510.22 v 7.74 h -36.75 V 459 h 36.75 v 7.73 h -27.17 v 17.77 h 21.69 v 7.5 h -21.69 v 18.21 z"
       id="path92"
       inkscape:connector-curvature="0" />
    <path
       d="m 1456.2,488.49 a 32.64,32.64 0 0 1 -2.12,12 26.31,26.31 0 0 1 -15.29,15.35 32.36,32.36 0 0 1 -12.06,2.15 h -22.25 V 459 h 22.25 a 32.36,32.36 0 0 1 12.06,2.15 26.31,26.31 0 0 1 15.29,15.35 32.68,32.68 0 0 1 2.12,11.99 z m -9.78,0 a 28.25,28.25 0 0 0 -1.37,-9.13 18.94,18.94 0 0 0 -3.93,-6.83 17.16,17.16 0 0 0 -6.19,-4.28 21.36,21.36 0 0 0 -8.2,-1.5 h -12.64 v 43.47 h 12.64 a 21.74,21.74 0 0 0 8.2,-1.48 17,17 0 0 0 6.19,-4.26 19.24,19.24 0 0 0 3.93,-6.84 28.2,28.2 0 0 0 1.37,-9.15 z"
       id="path94"
       inkscape:connector-curvature="0" />
    <path
       d="m 1511.7,510.22 v 7.74 h -36.74 V 459 h 36.74 v 7.73 h -27.13 v 17.77 h 21.69 v 7.5 h -21.69 v 18.21 z"
       id="path96"
       inkscape:connector-curvature="0" />
    <path
       d="m 1553.49,510.22 a 15.35,15.35 0 0 0 6.07,-1.14 12.94,12.94 0 0 0 4.55,-3.19 13.92,13.92 0 0 0 2.89,-4.89 19.66,19.66 0 0 0 1,-6.4 V 459 h 9.54 v 35.53 a 27.3,27.3 0 0 1 -1.66,9.62 21.5,21.5 0 0 1 -12.33,12.66 28.26,28.26 0 0 1 -20,0 21.63,21.63 0 0 1 -7.54,-5 21.32,21.32 0 0 1 -4.77,-7.62 26.85,26.85 0 0 1 -1.66,-9.62 V 459 h 9.58 v 35.5 a 19.69,19.69 0 0 0 1,6.41 14,14 0 0 0 2.82,4.95 12.61,12.61 0 0 0 4.52,3.22 15.43,15.43 0 0 0 5.99,1.14 z"
       id="path98"
       inkscape:connector-curvature="0" />
    <path
       d="m 1650.69,488.49 a 32.64,32.64 0 0 1 -2.12,12 26.31,26.31 0 0 1 -15.29,15.35 32.27,32.27 0 0 1 -12,2.15 H 1599 V 459 h 22.26 a 32.27,32.27 0 0 1 12,2.15 26.31,26.31 0 0 1 15.29,15.35 32.68,32.68 0 0 1 2.14,11.99 z m -9.78,0 a 28.25,28.25 0 0 0 -1.37,-9.13 18.94,18.94 0 0 0 -3.93,-6.83 17,17 0 0 0 -6.19,-4.28 21.34,21.34 0 0 0 -8.19,-1.5 h -12.64 v 43.47 h 12.64 a 21.73,21.73 0 0 0 8.19,-1.48 16.82,16.82 0 0 0 6.19,-4.26 19.24,19.24 0 0 0 3.93,-6.84 28.2,28.2 0 0 0 1.37,-9.15 z"
       id="path100"
       inkscape:connector-curvature="0" />
    <path
       d="m 1724.78,488.49 a 33.24,33.24 0 0 1 -2.13,12.07 27.66,27.66 0 0 1 -6,9.51 27.18,27.18 0 0 1 -9.28,6.25 33.17,33.17 0 0 1 -24.07,0 27.17,27.17 0 0 1 -15.3,-15.76 35.26,35.26 0 0 1 0,-24.14 27.91,27.91 0 0 1 6,-9.54 27.59,27.59 0 0 1 9.32,-6.27 33.31,33.31 0 0 1 24.07,0 27.23,27.23 0 0 1 9.28,6.27 27.89,27.89 0 0 1 6,9.54 33.24,33.24 0 0 1 2.11,12.07 z m -9.78,0 a 28.52,28.52 0 0 0 -1.37,-9.13 19.36,19.36 0 0 0 -3.93,-6.87 17,17 0 0 0 -6.21,-4.34 22.66,22.66 0 0 0 -16.32,0 17.09,17.09 0 0 0 -6.22,4.34 19.3,19.3 0 0 0 -4,6.87 31,31 0 0 0 0,18.29 19.38,19.38 0 0 0 4,6.87 17.34,17.34 0 0 0 6.22,4.29 22.95,22.95 0 0 0 16.32,0 17.21,17.21 0 0 0 6.21,-4.29 19.44,19.44 0 0 0 3.93,-6.87 28.58,28.58 0 0 0 1.37,-9.16 z"
       id="path102"
       inkscape:connector-curvature="0" />
    <path
       d="m 1788.29,518 h -8.55 a 3.94,3.94 0 0 1 -3.69,-2 l -13.75,-19.85 a 4.54,4.54 0 0 0 -1.51,-1.47 5.25,5.25 0 0 0 -2.46,-0.45 H 1753 V 518 h -9.58 v -59 h 17.35 a 37,37 0 0 1 10,1.19 18.85,18.85 0 0 1 6.9,3.37 13.54,13.54 0 0 1 4,5.26 17.7,17.7 0 0 1 1.29,6.84 17.26,17.26 0 0 1 -0.93,5.73 16.05,16.05 0 0 1 -2.66,4.83 16.9,16.9 0 0 1 -4.27,3.76 21.81,21.81 0 0 1 -5.78,2.5 9.45,9.45 0 0 1 3,3 z m -27.75,-30.7 a 18.68,18.68 0 0 0 5.74,-0.8 11.48,11.48 0 0 0 4.08,-2.22 9,9 0 0 0 2.46,-3.43 11.52,11.52 0 0 0 0.83,-4.39 8.88,8.88 0 0 0 -3.19,-7.37 c -2.14,-1.69 -5.36,-2.55 -9.67,-2.55 H 1753 v 20.76 z"
       id="path104"
       inkscape:connector-curvature="0" />
    <path
       d="m 1840.39,510.22 v 7.74 h -36.74 V 459 h 36.74 v 7.73 h -27.13 v 17.77 h 21.69 v 7.5 h -21.69 v 18.21 z"
       id="path106"
       inkscape:connector-curvature="0" />
    <path
       d="m 1889.75,469.09 a 3.72,3.72 0 0 1 -0.94,1.09 2.1,2.1 0 0 1 -1.23,0.34 3.11,3.11 0 0 1 -1.73,-0.66 c -0.65,-0.43 -1.44,-0.91 -2.38,-1.44 a 22.32,22.32 0 0 0 -3.33,-1.48 15.6,15.6 0 0 0 -8.91,-0.06 8.9,8.9 0 0 0 -3.13,1.72 7,7 0 0 0 -1.9,2.6 8.26,8.26 0 0 0 -0.63,3.25 5.84,5.84 0 0 0 1.18,3.75 9.93,9.93 0 0 0 3.14,2.55 25.33,25.33 0 0 0 4.43,1.87 c 1.67,0.53 3.36,1.1 5.09,1.69 1.73,0.59 3.44,1.28 5.11,2.05 a 17.17,17.17 0 0 1 4.43,2.91 13.58,13.58 0 0 1 3.14,4.3 14.53,14.53 0 0 1 1.18,6.18 19.8,19.8 0 0 1 -1.35,7.36 17.41,17.41 0 0 1 -3.91,6 18.1,18.1 0 0 1 -6.3,4 23,23 0 0 1 -8.53,1.48 27.65,27.65 0 0 1 -5.5,-0.56 28.74,28.74 0 0 1 -5.12,-1.55 25.15,25.15 0 0 1 -4.56,-2.44 23.42,23.42 0 0 1 -3.82,-3.19 l 2.79,-4.59 a 2.72,2.72 0 0 1 0.93,-0.89 2.58,2.58 0 0 1 1.28,-0.34 3.59,3.59 0 0 1 2.09,0.89 c 0.76,0.58 1.68,1.23 2.76,1.91 a 20.53,20.53 0 0 0 3.9,1.93 15.29,15.29 0 0 0 5.5,0.88 q 5.19,0 8,-2.53 a 9,9 0 0 0 2.84,-7 6.64,6.64 0 0 0 -1.19,-4.07 9.59,9.59 0 0 0 -3.13,-2.64 22.59,22.59 0 0 0 -4.44,-1.79 c -1.67,-0.5 -3.35,-1 -5.07,-1.58 a 50.73,50.73 0 0 1 -5.08,-2 16.24,16.24 0 0 1 -4.45,-2.94 13.82,13.82 0 0 1 -3.12,-4.5 16.64,16.64 0 0 1 -1.19,-6.7 15.89,15.89 0 0 1 4.9,-11.47 17.68,17.68 0 0 1 5.9,-3.71 21.74,21.74 0 0 1 8,-1.4 26,26 0 0 1 9.31,1.6 21.2,21.2 0 0 1 7.31,4.54 z"
       id="path108"
       inkscape:connector-curvature="0" />
    <path
       d="m 907.43,547 v 59 H 899 v -40.4 c 0,-0.65 0,-1.37 0,-2.15 0,-0.78 0.11,-1.56 0.2,-2.35 l -19,35 a 3.58,3.58 0 0 1 -3.39,2.16 h -1.36 a 3.54,3.54 0 0 1 -3.4,-2.16 L 852.91,561 q 0.12,1.18 0.18,2.37 c 0,0.8 0.07,1.54 0.07,2.21 V 606 h -8.43 v -59 h 7.16 a 7.17,7.17 0 0 1 2,0.22 2.55,2.55 0 0 1 1.26,1.37 L 874,582.87 c 0.41,0.78 0.8,1.6 1.16,2.43 0.36,0.83 0.7,1.69 1,2.56 0.33,-0.87 0.67,-1.74 1,-2.6 0.33,-0.86 0.76,-1.68 1.17,-2.47 L 897,548.6 a 2.48,2.48 0 0 1 1.26,-1.37 7.12,7.12 0 0 1 2,-0.22 z"
       id="path110"
       inkscape:connector-curvature="0" />
    <path
       d="m 985,576.48 a 33.24,33.24 0 0 1 -2.13,12.07 27.13,27.13 0 0 1 -15.28,15.76 33.17,33.17 0 0 1 -24.07,0 27.62,27.62 0 0 1 -9.31,-6.24 27.34,27.34 0 0 1 -6,-9.52 35.11,35.11 0 0 1 0,-24.14 27.24,27.24 0 0 1 15.32,-15.81 33.31,33.31 0 0 1 24.07,0 27.37,27.37 0 0 1 9.28,6.27 27.93,27.93 0 0 1 6,9.54 33.24,33.24 0 0 1 2.12,12.07 z m -9.78,0 a 28.46,28.46 0 0 0 -1.37,-9.12 19.4,19.4 0 0 0 -3.93,-6.88 17.09,17.09 0 0 0 -6.21,-4.34 22.8,22.8 0 0 0 -16.32,0 17.21,17.21 0 0 0 -6.22,4.34 19.34,19.34 0 0 0 -4,6.88 31,31 0 0 0 0,18.29 19.34,19.34 0 0 0 4,6.86 17.34,17.34 0 0 0 6.22,4.29 22.95,22.95 0 0 0 16.32,0 17.21,17.21 0 0 0 6.21,-4.29 19.4,19.4 0 0 0 3.93,-6.86 28.69,28.69 0 0 0 1.36,-9.17 z"
       id="path112"
       inkscape:connector-curvature="0" />
    <path
       d="m 1048.5,606 h -8.5 a 4,4 0 0 1 -3.69,-2 l -13.75,-19.86 a 4.55,4.55 0 0 0 -1.51,-1.47 5.23,5.23 0 0 0 -2.46,-0.45 h -5.31 V 606 h -9.58 v -59 h 17.3 a 37,37 0 0 1 10,1.19 18.71,18.71 0 0 1 6.9,3.38 13.47,13.47 0 0 1 4,5.26 17.65,17.65 0 0 1 1.29,6.83 17.22,17.22 0 0 1 -0.93,5.73 15.93,15.93 0 0 1 -2.66,4.83 16.9,16.9 0 0 1 -4.27,3.76 21.81,21.81 0 0 1 -5.78,2.5 9.45,9.45 0 0 1 3,3 z m -27.75,-30.7 a 18.68,18.68 0 0 0 5.74,-0.8 11.46,11.46 0 0 0 4.09,-2.22 9,9 0 0 0 2.45,-3.43 11.48,11.48 0 0 0 0.83,-4.39 8.89,8.89 0 0 0 -3.19,-7.37 c -2.14,-1.69 -5.35,-2.54 -9.67,-2.54 h -7.77 v 20.75 z"
       id="path114"
       inkscape:connector-curvature="0" />
    <path
       d="m 1118.49,576.48 a 33.24,33.24 0 0 1 -2.13,12.07 27.13,27.13 0 0 1 -15.28,15.76 33.17,33.17 0 0 1 -24.07,0 27.62,27.62 0 0 1 -9.31,-6.24 27.34,27.34 0 0 1 -6,-9.52 35.11,35.11 0 0 1 0,-24.14 27.24,27.24 0 0 1 15.3,-15.81 33.31,33.31 0 0 1 24.07,0 27.37,27.37 0 0 1 9.28,6.27 27.93,27.93 0 0 1 6,9.54 33.24,33.24 0 0 1 2.14,12.07 z m -9.78,0 a 28.46,28.46 0 0 0 -1.37,-9.12 19.4,19.4 0 0 0 -3.93,-6.88 17.09,17.09 0 0 0 -6.21,-4.34 22.8,22.8 0 0 0 -16.32,0 17.21,17.21 0 0 0 -6.22,4.34 19.34,19.34 0 0 0 -4,6.88 31,31 0 0 0 0,18.29 19.34,19.34 0 0 0 4,6.86 17.34,17.34 0 0 0 6.22,4.29 22.95,22.95 0 0 0 16.32,0 17.21,17.21 0 0 0 6.21,-4.29 19.4,19.4 0 0 0 3.93,-6.86 28.69,28.69 0 0 0 1.37,-9.17 z"
       id="path116"
       inkscape:connector-curvature="0" />
    <path
       d="m 1168,557.08 a 3.72,3.72 0 0 1 -0.94,1.09 2.1,2.1 0 0 1 -1.23,0.35 3.11,3.11 0 0 1 -1.73,-0.66 c -0.65,-0.44 -1.44,-0.92 -2.38,-1.45 a 21.5,21.5 0 0 0 -3.34,-1.47 13.59,13.59 0 0 0 -4.58,-0.69 13.81,13.81 0 0 0 -4.32,0.62 8.9,8.9 0 0 0 -3.13,1.72 6.89,6.89 0 0 0 -1.9,2.6 8.1,8.1 0 0 0 -0.63,3.26 5.83,5.83 0 0 0 1.17,3.74 10,10 0 0 0 3.14,2.55 25.77,25.77 0 0 0 4.44,1.87 q 2.49,0.79 5.09,1.7 a 54.74,54.74 0 0 1 5.1,2 17.06,17.06 0 0 1 4.44,2.91 13.58,13.58 0 0 1 3.14,4.3 14.53,14.53 0 0 1 1.17,6.18 19.85,19.85 0 0 1 -1.34,7.37 17.35,17.35 0 0 1 -3.92,6 18.22,18.22 0 0 1 -6.29,4 23.18,23.18 0 0 1 -8.53,1.47 27.1,27.1 0 0 1 -5.51,-0.56 28.88,28.88 0 0 1 -5.11,-1.55 25,25 0 0 1 -4.57,-2.44 23.34,23.34 0 0 1 -3.81,-3.19 l 2.79,-4.59 a 2.82,2.82 0 0 1 0.93,-0.89 2.58,2.58 0 0 1 1.28,-0.34 3.54,3.54 0 0 1 2.08,0.89 c 0.77,0.58 1.68,1.23 2.77,1.92 a 21.15,21.15 0 0 0 3.9,1.92 15.07,15.07 0 0 0 5.5,0.88 c 3.46,0 6.13,-0.84 8,-2.53 a 8.94,8.94 0 0 0 2.85,-7 6.64,6.64 0 0 0 -1.19,-4.07 9.7,9.7 0 0 0 -3.13,-2.64 22.59,22.59 0 0 0 -4.44,-1.79 c -1.67,-0.49 -3.35,-1 -5.07,-1.58 a 50.65,50.65 0 0 1 -5.08,-2 16.27,16.27 0 0 1 -4.45,-3 13.67,13.67 0 0 1 -3.12,-4.5 16.62,16.62 0 0 1 -1.19,-6.69 15.94,15.94 0 0 1 4.89,-11.48 17.72,17.72 0 0 1 5.91,-3.71 21.7,21.7 0 0 1 8,-1.4 25.76,25.76 0 0 1 9.34,1.8 21.32,21.32 0 0 1 7.32,4.53 z"
       id="path118"
       inkscape:connector-curvature="0" />
    <path
       d="m 1245.37,576.48 a 33.24,33.24 0 0 1 -2.13,12.07 27.13,27.13 0 0 1 -15.24,15.76 33.15,33.15 0 0 1 -24.06,0 27.1,27.1 0 0 1 -15.33,-15.76 35.26,35.26 0 0 1 0,-24.14 27.22,27.22 0 0 1 15.33,-15.81 33.29,33.29 0 0 1 24.06,0 27.37,27.37 0 0 1 9.28,6.27 27.93,27.93 0 0 1 6,9.54 33.24,33.24 0 0 1 2.09,12.07 z m -9.78,0 a 28.18,28.18 0 0 0 -1.37,-9.12 19.25,19.25 0 0 0 -3.93,-6.88 17,17 0 0 0 -6.2,-4.34 22.83,22.83 0 0 0 -16.33,0 17.09,17.09 0 0 0 -6.21,4.34 19.36,19.36 0 0 0 -4,6.88 31,31 0 0 0 0,18.29 19.36,19.36 0 0 0 4,6.86 17.21,17.21 0 0 0 6.21,4.29 23,23 0 0 0 16.33,0 17.17,17.17 0 0 0 6.2,-4.29 19.25,19.25 0 0 0 3.93,-6.86 28.41,28.41 0 0 0 1.37,-9.17 z"
       id="path120"
       inkscape:connector-curvature="0" />
    <path
       d="m 1294.85,557.08 a 3.72,3.72 0 0 1 -0.94,1.09 2.1,2.1 0 0 1 -1.23,0.35 3.11,3.11 0 0 1 -1.73,-0.66 c -0.65,-0.44 -1.44,-0.92 -2.38,-1.45 a 21.5,21.5 0 0 0 -3.34,-1.47 13.61,13.61 0 0 0 -4.59,-0.69 13.79,13.79 0 0 0 -4.31,0.62 8.9,8.9 0 0 0 -3.13,1.72 6.89,6.89 0 0 0 -1.9,2.6 8.1,8.1 0 0 0 -0.63,3.26 5.83,5.83 0 0 0 1.17,3.74 10,10 0 0 0 3.14,2.55 25.77,25.77 0 0 0 4.44,1.87 q 2.49,0.79 5.09,1.7 a 54.74,54.74 0 0 1 5.1,2 17.06,17.06 0 0 1 4.44,2.91 13.58,13.58 0 0 1 3.14,4.3 14.53,14.53 0 0 1 1.17,6.18 19.85,19.85 0 0 1 -1.34,7.37 17.35,17.35 0 0 1 -3.92,6 18.22,18.22 0 0 1 -6.29,4 23.18,23.18 0 0 1 -8.53,1.47 27.1,27.1 0 0 1 -5.51,-0.56 28.88,28.88 0 0 1 -5.11,-1.55 25,25 0 0 1 -4.57,-2.44 23.34,23.34 0 0 1 -3.81,-3.19 l 2.79,-4.59 a 2.82,2.82 0 0 1 0.93,-0.89 2.58,2.58 0 0 1 1.28,-0.34 3.54,3.54 0 0 1 2.08,0.89 c 0.77,0.58 1.68,1.23 2.77,1.92 a 21.15,21.15 0 0 0 3.9,1.92 15.07,15.07 0 0 0 5.5,0.88 c 3.46,0 6.13,-0.84 8,-2.53 a 8.94,8.94 0 0 0 2.85,-7 6.64,6.64 0 0 0 -1.19,-4.07 9.7,9.7 0 0 0 -3.13,-2.64 22.44,22.44 0 0 0 -4.45,-1.79 c -1.66,-0.49 -3.34,-1 -5.06,-1.58 a 50.65,50.65 0 0 1 -5.08,-2 16.27,16.27 0 0 1 -4.45,-3 13.84,13.84 0 0 1 -3.13,-4.5 16.8,16.8 0 0 1 -1.18,-6.69 15.94,15.94 0 0 1 4.89,-11.48 17.72,17.72 0 0 1 5.91,-3.71 21.7,21.7 0 0 1 8,-1.4 25.76,25.76 0 0 1 9.3,1.61 21.32,21.32 0 0 1 7.32,4.53 z"
       id="path122"
       inkscape:connector-curvature="0" />
    <path
       d="m 1397.17,576.48 a 32.85,32.85 0 0 1 -2.11,12 26.36,26.36 0 0 1 -15.3,15.35 32.27,32.27 0 0 1 -12,2.15 H 1345.5 V 547 h 22.26 a 32.27,32.27 0 0 1 12,2.15 26.36,26.36 0 0 1 15.3,15.35 32.89,32.89 0 0 1 2.11,11.98 z m -9.78,0 a 28.18,28.18 0 0 0 -1.37,-9.12 19,19 0 0 0 -3.93,-6.84 17.11,17.11 0 0 0 -6.19,-4.28 21.53,21.53 0 0 0 -8.19,-1.5 h -12.64 v 43.47 h 12.64 a 21.53,21.53 0 0 0 8.19,-1.48 16.82,16.82 0 0 0 6.19,-4.26 19.16,19.16 0 0 0 3.93,-6.84 28.2,28.2 0 0 0 1.37,-9.15 z"
       id="path124"
       inkscape:connector-curvature="0" />
    <path
       d="m 1452.66,598.21 v 7.74 h -36.74 V 547 h 36.74 v 7.73 h -27.13 v 17.77 h 21.69 v 7.5 h -21.69 v 18.21 z"
       id="path126"
       inkscape:connector-curvature="0" />
    <path
       d="m 1505.26,597.92 v 8 h -34 V 547 h 9.58 v 50.91 z"
       id="path128"
       inkscape:connector-curvature="0" />
    <path
       d="m 1584.57,598.21 v 7.74 h -36.74 V 547 h 36.74 v 7.73 h -27.17 v 17.77 h 21.69 v 7.5 h -21.69 v 18.21 z"
       id="path130"
       inkscape:connector-curvature="0" />
    <path
       d="m 1633.94,557.08 a 3.45,3.45 0 0 1 -0.94,1.09 2.08,2.08 0 0 1 -1.23,0.35 3.14,3.14 0 0 1 -1.73,-0.66 c -0.65,-0.44 -1.43,-0.92 -2.38,-1.45 a 21,21 0 0 0 -3.33,-1.47 13.65,13.65 0 0 0 -4.59,-0.69 13.81,13.81 0 0 0 -4.32,0.62 8.9,8.9 0 0 0 -3.13,1.72 7,7 0 0 0 -1.9,2.6 8.27,8.27 0 0 0 -0.63,3.26 5.83,5.83 0 0 0 1.18,3.74 9.93,9.93 0 0 0 3.14,2.55 25.33,25.33 0 0 0 4.43,1.87 c 1.67,0.53 3.36,1.1 5.09,1.7 a 54.93,54.93 0 0 1 5.11,2 17.17,17.17 0 0 1 4.43,2.91 13.43,13.43 0 0 1 3.14,4.3 14.53,14.53 0 0 1 1.18,6.18 20.05,20.05 0 0 1 -1.34,7.37 17.49,17.49 0 0 1 -3.92,6 18.26,18.26 0 0 1 -6.3,4 23.14,23.14 0 0 1 -8.53,1.47 27,27 0 0 1 -5.5,-0.56 29,29 0 0 1 -5.12,-1.55 24.87,24.87 0 0 1 -4.56,-2.44 23.85,23.85 0 0 1 -3.82,-3.19 l 2.8,-4.59 a 2.64,2.64 0 0 1 0.93,-0.89 2.52,2.52 0 0 1 1.28,-0.34 3.54,3.54 0 0 1 2.08,0.89 c 0.76,0.58 1.68,1.23 2.76,1.92 a 21.27,21.27 0 0 0 3.91,1.92 15,15 0 0 0 5.49,0.88 q 5.19,0 8,-2.53 a 8.93,8.93 0 0 0 2.84,-7 6.64,6.64 0 0 0 -1.19,-4.07 9.56,9.56 0 0 0 -3.12,-2.64 22.69,22.69 0 0 0 -4.45,-1.79 c -1.67,-0.49 -3.35,-1 -5.07,-1.58 a 50.65,50.65 0 0 1 -5.08,-2 16.22,16.22 0 0 1 -4.44,-3 13.69,13.69 0 0 1 -3.13,-4.5 16.62,16.62 0 0 1 -1.19,-6.69 15.89,15.89 0 0 1 4.9,-11.48 17.72,17.72 0 0 1 5.91,-3.71 21.64,21.64 0 0 1 8,-1.4 25.82,25.82 0 0 1 9.4,1.8 21.18,21.18 0 0 1 7.31,4.53 z"
       id="path132"
       inkscape:connector-curvature="0" />
    <path
       d="m 1696.53,555 h -18.38 v 51 h -9.54 v -51 h -18.42 v -8 h 46.34 z"
       id="path134"
       inkscape:connector-curvature="0" />
    <path
       d="M 1756.43,606 H 1749 a 3.18,3.18 0 0 1 -2,-0.63 4.35,4.35 0 0 1 -1.19,-1.58 l -4.91,-13 h -25.37 l -4.91,13 a 4,4 0 0 1 -1.15,1.51 3,3 0 0 1 -2,0.7 H 1700 l 23.37,-59 h 9.69 z m -18.12,-22.1 -8.1,-21.53 a 59.32,59.32 0 0 1 -2,-6.35 c -0.3,1.29 -0.62,2.47 -1,3.54 -0.38,1.07 -0.67,2 -1,2.84 l -8.11,21.5 z"
       id="path136"
       inkscape:connector-curvature="0" />
    <path
       d="m 1823.23,576.48 a 32.64,32.64 0 0 1 -2.12,12 26.39,26.39 0 0 1 -15.29,15.35 32.36,32.36 0 0 1 -12.06,2.15 H 1771.5 V 547 h 22.26 a 32.36,32.36 0 0 1 12.06,2.15 26.39,26.39 0 0 1 15.29,15.35 32.68,32.68 0 0 1 2.12,11.98 z m -9.79,0 a 28.18,28.18 0 0 0 -1.37,-9.12 18.84,18.84 0 0 0 -3.93,-6.84 17.11,17.11 0 0 0 -6.19,-4.28 21.5,21.5 0 0 0 -8.19,-1.5 h -12.64 v 43.47 h 12.64 a 21.5,21.5 0 0 0 8.19,-1.48 16.82,16.82 0 0 0 6.19,-4.26 19,19 0 0 0 3.93,-6.84 28.2,28.2 0 0 0 1.37,-9.15 z"
       id="path138"
       inkscape:connector-curvature="0" />
    <path
       d="m 1897.31,576.48 a 33.24,33.24 0 0 1 -2.13,12.07 27.13,27.13 0 0 1 -15.28,15.76 33.15,33.15 0 0 1 -24.06,0 27.1,27.1 0 0 1 -15.33,-15.76 35.26,35.26 0 0 1 0,-24.14 27.22,27.22 0 0 1 15.33,-15.81 33.29,33.29 0 0 1 24.06,0 27.37,27.37 0 0 1 9.28,6.27 27.93,27.93 0 0 1 6,9.54 33.24,33.24 0 0 1 2.13,12.07 z m -9.78,0 a 28.18,28.18 0 0 0 -1.37,-9.12 19.25,19.25 0 0 0 -3.93,-6.88 17.13,17.13 0 0 0 -6.2,-4.34 22.83,22.83 0 0 0 -16.33,0 17.21,17.21 0 0 0 -6.22,4.34 19.49,19.49 0 0 0 -4,6.88 31,31 0 0 0 0,18.29 19.49,19.49 0 0 0 4,6.86 17.34,17.34 0 0 0 6.22,4.29 23,23 0 0 0 16.33,0 17.26,17.26 0 0 0 6.2,-4.29 19.25,19.25 0 0 0 3.93,-6.86 28.41,28.41 0 0 0 1.37,-9.17 z"
       id="path140"
       inkscape:connector-curvature="0" />
    <rect
       class="cls-13"
       x="481.39999"
       y="656.79999"
       width="1420.6"
       height="10.39"
       id="rect142"
       style="fill:url(#Degradado_sin_nombre_5-6)" />
  </g>
</svg>
